<?xml version="1.0" encoding="UTF-8"?>
<svg width="26px" height="26px" viewBox="0 0 26 26" version="1.1" xmlns="http://www.w3.org/2000/svg" xmlns:xlink="http://www.w3.org/1999/xlink">
    <!-- Generator: Sketch 49.3 (51167) - http://www.bohemiancoding.com/sketch -->
    <title>Skype</title>
    <desc>Created with Sketch.</desc>
    <defs></defs>
    <g id="Page-1" stroke="none" stroke-width="1" fill="none" fill-rule="evenodd">
        <g id="LIÊN-HỆ" transform="translate(-801.000000, -278.000000)" fill="#26C635">
            <path d="M825.763682,292.698584 C825.83508,292.16277 825.876162,291.618042 825.876162,291.063525 C825.876162,284.409324 820.53038,279.014287 813.937361,279.014287 C813.282081,279.014287 812.639649,279.068899 812.014482,279.172971 C810.89359,278.431898 809.55962,278 808.123986,278 C804.18733,278 801,281.235909 801,285.228657 C801,286.681436 801.421433,288.031071 802.147146,289.164268 C802.049392,289.783391 801.999424,290.417404 801.999424,291.063319 C801.999424,297.718551 807.342464,303.11302 813.937311,303.11302 C814.68161,303.11302 815.406257,303.039552 816.110541,302.910441 C817.204875,303.599221 818.493903,304 819.87576,304 C823.811401,304 827,300.763267 827,296.770931 C826.999848,295.261737 826.545001,293.858572 825.763682,292.698584 L825.763682,292.698584 Z M815.022866,299.970947 C811.342314,300.172019 809.619984,299.317916 808.042203,297.764842 C806.280164,296.030179 806.987985,294.051655 808.423531,293.951094 C809.858289,293.850583 810.719774,295.657025 811.485534,296.159524 C812.250357,296.660162 815.160518,297.800757 816.697702,295.957574 C818.371554,293.951094 815.58456,292.912817 813.541698,292.598523 C810.624935,292.14553 806.942363,290.490499 807.228852,287.229013 C807.515439,283.969594 809.868684,282.298388 812.345245,282.062642 C815.502136,281.762042 817.557266,282.564262 819.182787,284.019099 C821.062378,285.700072 820.045356,287.579274 818.847819,287.730478 C817.655012,287.880804 816.315291,284.965599 813.685065,284.921778 C810.974042,284.87713 809.141797,287.880804 812.488563,288.734648 C815.837055,289.587562 819.422915,289.937978 820.714256,293.148667 C822.006484,296.359666 818.706423,299.769669 815.022866,299.970947 L815.022866,299.970947 Z" id="Skype"></path>
        </g>
    </g>
</svg>